# xmcd CD database file
#
# Track frame offsets:
#	150
#	22195
#	45235
#	69754
#	97879
#	122127
#	149146
#	174026
#	196883
#	220067
#	239066
#	263020
#	288018
#
# Disc length: 4176 seconds
#
# Revision: 2
# Processed by: cddbd v1.5.2PL0 Copyright (c) Steve Scherf et al.
# Submitted via: CDex 1.70beta2
#
DISCID=b3104e0d
DTITLE=Rasmus Faber - So Far 3 (Disc2)
DYEAR=2010
DGENRE=Jazz
TTITLE0=Are You Ready [Kaskade Remix]
TTITLE1=Everything Is Alright [Richard Earnshaw Main Mix]
TTITLE2=Come With Me [Reel People Remix]
TTITLE3=No More Falling [Dj Jorj Remix]
TTITLE4=Demanda [Miguel Migs Main Mix]
TTITLE5=Ever After [Christian Alvarez Dreamscape Mix]
TTITLE6=Cidade Oposta [Hideo Kobayashi Z4 Mix]
TTITLE7=Always [Studio Apartment Museum Main Mix]
TTITLE8=Never Figure Out [Alf Tumble Re-Dress]
TTITLE9=Give It To Me [Hardsoul Reconstruction Mix]
TTITLE10=Everytime We [Suneil S Remix]
TTITLE11=Yes [The Realm Remix]
TTITLE12=Get Over Here [Axwell Re-Mode]
EXTD=YEAR: 2010
EXTT0=
EXTT1=
EXTT2=
EXTT3=
EXTT4=
EXTT5=
EXTT6=
EXTT7=
EXTT8=
EXTT9=
EXTT10=
EXTT11=
EXTT12=
PLAYORDER=
